<svg width="41" height="38" viewBox="0 0 41 38" fill="none" xmlns="http://www.w3.org/2000/svg">
<g id="Iconly/Bulk/Notification">
<g id="Notification">
<path id="Fill 1" d="M19.7695 25.6453C19.039 24.7923 18.7071 24.0531 18.7071 22.7972V22.3701C18.7071 20.7335 18.3304 19.6791 17.5115 18.6246C16.2493 16.987 14.1244 16 12.0442 16H11.9558C9.91935 16 7.86106 16.9417 6.577 18.5128C5.71333 19.5884 5.29293 20.6882 5.29293 22.3701V22.7972C5.29293 24.0531 4.98284 24.7923 4.23049 25.6453C3.67691 26.2738 3.5 27.0815 3.5 27.9557C3.5 28.8309 3.78723 29.6598 4.36367 30.3336C5.11602 31.1413 6.17846 31.6569 7.26375 31.7466C8.83505 31.9258 10.4063 31.9933 12.0005 31.9933C13.5937 31.9933 15.165 31.8805 16.7372 31.7466C17.8215 31.6569 18.884 31.1413 19.6363 30.3336C20.2118 29.6598 20.5 28.8309 20.5 27.9557C20.5 27.0815 20.3231 26.2738 19.7695 25.6453Z" fill="white"/>
<path id="Fill 4" opacity="0.4" d="M14.0087 33.2284C13.5088 33.1216 10.4626 33.1216 9.96269 33.2284C9.53533 33.3271 9.07318 33.5567 9.07318 34.0603C9.09803 34.5407 9.37929 34.9647 9.76888 35.2336L9.76789 35.2346C10.2718 35.6274 10.8631 35.8771 11.4823 35.9668C11.8123 36.0121 12.1482 36.0101 12.4901 35.9668C13.1083 35.8771 13.6996 35.6274 14.2035 35.2346L14.2025 35.2336C14.5921 34.9647 14.8734 34.5407 14.8982 34.0603C14.8982 33.5567 14.4361 33.3271 14.0087 33.2284Z" fill="white"/>
</g>
<g id="Badges/02. Pill/01. Primary" filter="url(#filter0_d_1936_2761)">
<rect x="12" y="8" width="17" height="14" rx="7" fill="#F3B418"/>
<path id="Text" d="M20.112 13.656C20.56 13.656 20.824 13.936 20.824 14.36C20.824 14.592 20.744 14.76 20.624 14.88C20.568 14.944 20.528 14.96 20.448 14.96H19.8C19.712 14.96 19.664 14.944 19.616 14.896C19.472 14.744 19.392 14.568 19.392 14.336C19.392 13.96 19.64 13.656 20.112 13.656ZM20.12 17.264C19.616 17.264 19.272 16.952 19.272 16.488C19.272 16.184 19.408 15.96 19.608 15.832C19.672 15.784 19.696 15.784 19.768 15.784H20.464C20.544 15.784 20.584 15.8 20.648 15.84C20.816 15.968 20.96 16.192 20.952 16.504C20.952 16.92 20.688 17.264 20.12 17.264ZM20.128 12.856C19.048 12.856 18.472 13.528 18.472 14.264C18.472 14.792 18.728 15.152 19.016 15.384C18.6 15.64 18.304 16.032 18.304 16.576C18.304 17.392 18.936 18.08 20.072 18.08C21.152 18.08 21.92 17.472 21.92 16.568C21.92 15.936 21.544 15.552 21.192 15.336C21.424 15.152 21.736 14.792 21.736 14.264C21.736 13.584 21.224 12.856 20.128 12.856Z" fill="white"/>
</g>
</g>
<defs>
<filter id="filter0_d_1936_2761" x="0" y="0" width="41" height="38" filterUnits="userSpaceOnUse" color-interpolation-filters="sRGB">
<feFlood flood-opacity="0" result="BackgroundImageFix"/>
<feColorMatrix in="SourceAlpha" type="matrix" values="0 0 0 0 0 0 0 0 0 0 0 0 0 0 0 0 0 0 127 0" result="hardAlpha"/>
<feOffset dy="4"/>
<feGaussianBlur stdDeviation="6"/>
<feColorMatrix type="matrix" values="0 0 0 0 0.952941 0 0 0 0 0.705882 0 0 0 0 0.0941176 0 0 0 0.25 0"/>
<feBlend mode="normal" in2="BackgroundImageFix" result="effect1_dropShadow_1936_2761"/>
<feBlend mode="normal" in="SourceGraphic" in2="effect1_dropShadow_1936_2761" result="shape"/>
</filter>
</defs>
</svg>
